<svg version="1.2" xmlns="http://www.w3.org/2000/svg" viewBox="0 0 2050 2154" width="200" height="210"><defs><clipPath clipPathUnits="userSpaceOnUse" id="cp1"><path d="m0 0h2050v2154h-2050z"/></clipPath></defs><style>.a{fill:#010101}</style><g clip-path="url(#cp1)"><path fill-rule="evenodd" class="a" d="m852.3 143.4c62.2-13.4 126.1-17.4 189.6-15.6 85.5 3.4 170.1 22.1 250.3 51.3 50.9 18.8 100.4 41.4 146.6 69.8 21.1 13.3 44.3 24.2 61.5 42.7-2.6-1.6-5.5-2.5-8.4-3.2-0.5-3.8-2.5-6.9-6.1-8.3-58.6-31.7-120.6-57.5-184.9-75.3-44.6-12.5-90.6-19.5-136.8-21.9-89.6-4.8-179.7 2.3-268 18.2-58.1 15.2-114.5 36.4-168.8 62.1-59.6 28.6-116.4 64-164.9 109.3-69.6 64.4-127.1 141-175.5 222.4-18.9 31.3-34.2 64.7-47.3 98.8-14.7 38.3-26.4 77.8-33.4 118.1-10.6 60.2-15.2 121.2-16.8 182.2 0 16.1-1.5 32.3 0.9 48.2 6.8 52.6 14.7 105.2 26.8 156.9 5.9 25.7 14 50.9 24.8 74.9 17.5 40 38.1 78.5 60.4 116 4.8 6.9 7.7 14.9 12 22 39.7 57.1 85.2 110.2 135.1 158.6 42.9 42.3 92.4 77.1 143.7 108.4 29.8 17.8 60.1 35.3 92.7 47.5 43 16.5 88.1 28.1 134 32.8 34.7 3.2 70.3 3.7 104.2-5.3 12.7-3.1 25.6-5.7 38.3-9.1 8.6-2.6 18.5-5.6 22.7-14.4 14.6 6.3 30.9-1.2 46.1 1.5-4.8 9.6-9 19.5-14.6 28.6-14.9 11.7-33.6 16-51.7 19.7-0.4 0.8-1.3 2.4-1.7 3.2-22.8 0.6-45.6 0.2-68.3 1.6-25.6 1.4-51.2-1.3-76.7-1.8-9.3-3.7-19.3-4.6-29-6.8-69.1-14.8-137.3-34.5-203.1-60.6-42-16.7-83-36.3-121.1-60.8-61.5-39.4-117.9-86.9-167.5-140.6-43.5-48.2-82.5-100.6-115.1-156.8-44.6-77.8-72.1-164.1-91.3-251.4-6.6-32.4-13.5-65-14.3-98.2-3.2-66.6 1.3-133.4 12.9-199 12.3-70.1 37.5-137.1 65.3-202.3 11.3-25.4 21.6-51.5 37.4-74.5 56.7-86.9 125.3-166.7 206.4-231.7 32.2-25.4 66.9-47.3 102.8-67.1 13.4-7.5 27-14.9 41.1-21 67.6-29.5 137.3-54.8 209.7-69.1zm-67.6 139.4c12.4-7.9 24.4-16.6 37.7-23-1.7 5.8-7.6 8.9-11.1 13.6-39.7 46.4-74.5 97.1-102.9 151.2-30.3 57.8-53.2 120.1-61.6 185-8.6 65.2-5 131.4 5.7 196.1 6.6 38.7 15.7 77 28.4 114.2 23.2 64.7 55.2 126.2 94.8 182.4 24.4 35.2 50.7 69 77.9 102.1 5.8 7.1 10.2 15.2 15.1 22.9 21.7 35 42 71 59.9 108.1 12.3 26.1 23.8 52.7 31.2 80.6 9.7 38.4 13 79.3 3.9 118.1-6.7 27.3-20.4 52.6-38.4 74-10.1-33.3-21.2-66.6-38.4-97-15.1-25.9-33.4-50.3-56.8-69.4-16.3-13.3-33.2-26.7-52.6-35.3-14-6.2-28.6-10.8-43.3-14.6-37.8-11-77.8-7.1-116.3-2.7-15.5 1.8-30.8 4.5-46.1 7.1-16.6 1.8-33.3 1.5-49.9 1.1-26.6-1.2-54.1-4.3-77.8-17.5-17.7-10.2-33.5-25-42.3-43.6-9.2-19.8-8-42.8-1.2-63.1 3.8-12.3 10.2-23.5 15.7-35 4-7.6 1.1-17.8-6.3-22.1-13-7.8-25.6-17.9-32.4-31.7-5.3-11.9 0-25.3 7.9-34.6 5.7-7.8 14.2-12.8 20.5-20-10.3-6.7-21.7-12.4-30.1-21.6-8.4-9.3-7-24.3 1.3-33.2 7.7-10.4 20.4-15.3 28.5-25.2 10.1-15.9 7.3-37.3-3.2-52.4-9.4-15.8-26.3-24.1-39.1-36.6-11.6-11.2-24.4-22.8-29.3-38.5-1.4-12.2 8.5-21.7 16.2-29.7 21-21.1 48.4-34 70.8-53.3 22.5-18.8 44.5-38.9 61.1-63.2 7.1-10.1 14.5-21.1 15.2-33.8 0.5-8.3-3-16.7-9.2-22.3-17.5-17.4-37.5-31.9-57.2-46.7-7.7-5.9-16.4-11.9-19.7-21.5 11 7.9 21.1 17 31.8 25.2 5.1 4.1 12 4.3 18.1 6-11.4-13.5-21.2-28.4-31.2-43q-2-2.9-2.5-6.4c6.1 5.1 9.5 12.5 14.7 18.5 16.4 19.1 35.5 35.6 54.7 51.8 8.9-29.9 17.6-59.9 26.4-89.9 5.1-16.8 9.1-34.1 16.4-50.1 24.9-58.5 55.9-115.8 100.6-161.6 43.2-45.3 92.5-84.5 144.4-119.4zm8.6 76.5c10.3-11.8 20-24.6 32.6-34-7.7 9.4-14 19.8-20.7 30-35.2 55.1-67.4 113-86 176.1-12 42.5-18.9 86.5-20.8 130.6-2 30.2 3.3 60.3 8.9 89.9 9.2 45.7 23.2 90.6 44.9 132 12.3 24.2 27.5 46.8 42.2 69.6 30.5 45.9 69.7 84.8 107.9 124.1 42.7 46 88.7 88.9 130.7 135.5 10.7 13.1 24.2 23.9 34.4 37.5 5.9 8 13.7 14.4 19.7 22.3 5.9 8.6 13.9 15.4 19.6 24.2 11.8 12.8 20.2 28.1 29.5 42.7 34.2 57.5 54.3 123.4 57.1 190.3 0.2 19.8 0.6 39.9-3 59.5-19 1.1-38.1 1.7-57.2 1.1 5.7-40.4 3.4-82.1-8.5-121.2-9-30.3-25.8-57.4-42.2-84.1-20.3-32.4-42.3-63.8-65.4-94.2-24.2-32.9-52.3-62.5-78.6-93.6-20.7-24.6-42.8-47.8-64.1-71.9-48.7-54.1-91.1-113.8-127.4-176.9-18-30.6-31.2-63.7-41.6-97.6-22.4-69.4-33.2-143.5-24.8-216.3 3.6-32 8.7-63.8 17.1-94.9 20.5-65.4 52.3-127.6 95.7-180.7zm381.7 255.9c1.9-2.7 4.3 0.6 6 1.7 160.4 140.6 321.1 280.9 481.4 421.5-34.5 11.3-68.9 23.2-102.7 36.8-127.5-112.9-255-225.7-382.4-338.8-1.1 0-3.4-0.2-4.6-0.2-103.6 92.7-207.7 185-311.4 277.7-13.7-14.6-26.6-30.1-38.9-46-5.9-8-12.7-15.7-15.9-25.4 122.8-109.1 245.6-218.2 368.5-327.3zm-89.9 338.7q36.4-0.1 72.9 0c0 25.7 0 51.4 0 77.1-24.3 0-48.6 0-72.9 0q0-38.6 0-77.1zm111.7 0.3c26.4-0.8 52.8-0.2 79.2-0.3q0 38.5 0 77.1c-26.3 0-52.6-0.1-78.9 0-0.3-25.6 0.2-51.2-0.3-76.8zm613.9 28.5c2.9-5.4 4.3-11.9 9.5-15.5-2.8 65.7-12.2 131.2-28.5 194.9-16.2 63.8-43.9 124.1-77 180.7-24.9 42.1-52.2 83-83.2 120.8-38 38.9-79 74.9-122.5 107.5-73.4 55.1-159 92.2-247 117-28.9 7-58.5 10.8-87.9 14.7-45.8 5.3-92 8.8-138.2 6.4-65.4-3.5-128.4-23.1-191.8-38.1-30.5-8.3-59.3-21.7-87.3-36.1-38.1-20-75-42.6-109.4-68.4-49.5-38-94.7-81.3-136-128-6.3-7.3-12.8-14.6-18.6-22.4 42.5 8.8 87 8.8 129.2-2.3 45.1 44.2 95.3 83.6 151.2 113.2 38.6 20.7 78.9 38 119.8 53.4 0.9 13.6 2.9 27.5 8.5 40 3.2 7 8.6 13.9 16.5 15.3 8.9 1.9 17.5-2.5 24.1-8 9.5-8 17-18 24.6-27.7 83.4 15.1 169.2 16.2 253.1 4.4 56-7.6 110.8-23 163.7-42.9 36.2-13.5 72-28.7 105.2-48.7 37.2-23.2 71-51.3 102.8-81.4 23.2-22.2 45.2-45.6 65.2-70.7 2.9-4.8 9.2-10.3 6.4-16.2-5.4-0.6-9.6 3.7-13.7 6.6-44.4 35-89.7 69.5-139.5 96.6-44.4 24.6-93.4 39.6-142.6 51-42.6 9.5-86 15.5-129.5 17.9-7.3 0.5-14.5-0.2-21.7-0.9-1.2-43 1.2-86.3 9.3-128.7 6.6-32 16-64.9 37.1-90.6 9.6-12.1 23.5-19.4 36.2-27.8 23.3-15.4 49-26.4 74.7-37.2 64.9-27.1 130.7-51.7 196.7-75.8 5.1-1.9 10.2-3.9 15.6-4.9 34.2-6 67.8-16.4 99.1-31.7 25.4-12.6 49.5-28.7 68.7-49.7 23.5-25.6 41.9-55.6 57.2-86.7zm-725.6 89.5c24.3 0 48.6 0 72.9 0 0 24.7 0 49.5 0 74.2-24.3 0.1-48.6 0-72.9 0 0-24.7-0.1-49.5 0-74.2zm111.9 0q39.5 0 79 0c0 24.7 0 49.5 0 74.2-26.3 0.1-52.7 0-79 0 0-24.7 0-49.5 0-74.2zm-210.2 786.9c13-3.7 28.4 0.6 36 12.1 11.4 17.6 9.7 44.6-6.9 58.5-12.8 10.9-34.1 10.4-45.4-2.2-10.1-11.2-12.4-27.7-9.1-42 2.8-12.6 12.9-23.1 25.4-26.4zm0 7.8c-7.2 2.7-10.7 10.5-12.2 17.6-2.3 12.2-0.6 25.8 6.9 36 5.4 7.5 16.7 11.1 25 6.1 7.2-5 9.5-14.4 9.9-22.6 0.5-11.5-1.3-24.4-10-32.7-5.1-5-12.8-6.4-19.6-4.4zm542.6-7.7c17 1.4 34.4 0.8 51.6 0.9 0.8 4.2-1.6 7.8-3.5 11.2-10.9 18.9-22.2 37.5-33.3 56.2 8.6-0.1 17.3 0.7 25.9-0.2 5.9-3.8 7.4-11.5 10.7-17.3 1.7 1.3 5.3 1.1 5.3 4-1.2 7.2-2.8 14.7-6.5 21.2-17.3 2.3-35-1.1-52.5 0.8-1.6-5.4 2.8-9.5 5.3-13.8 11.4-17.8 22.4-35.9 32.8-54.4-8.9 0.2-17.9-0.7-26.7 1.2-3.4 3.8-4.6 9-6.5 13.7-1.5-0.3-4.5-0.9-6-1.2 1.1-7.4 1.2-15.1 3.4-22.3zm-1138.3 0.9c9.7 0.1 19.5 0.1 29.2 0 0 1.6-0.1 4.6-0.1 6.2q-3.8 1-7.7 2.1c-0.3 8.9-0.5 17.7-0.4 26.5 8.8-7.5 16.3-16.6 22.4-26.4-4.5-0.7-8.9-2.6-8.2-8 9.4-0.6 18.9-0.2 28.4-0.4 0 1.5 0 4.5-0.1 5.9-3.8 1.4-8.3 2.1-11.1 5.4-6.8 7.6-13.1 15.7-20.2 23.2 7.6 10.8 15.9 21.2 25.5 30.3 5 4.8 12.4 3.4 18.6 2.6 1.3-19.8 0.7-39.7 0.3-59.6-2.8-0.7-5.6-1.4-8.4-2.1 0.1-1.6 0.2-4.7 0.3-6.3 16.6 0.9 33.3 0.5 50 0.4-0.8 6.5-1.6 13-2.3 19.6q-3.1 0-6.1 0.1c-0.7-3.6-1.1-7.2-2.4-10.6-5.9-1.4-12.1-0.6-18.1-0.7 0 8.2-0.4 16.3-0.3 24.5 5.2-0.1 10.5 0.2 15.6-0.7 2.2-4 3.2-9.6 9.2-7.6-0.4 8.3-0.7 16.6-0.4 24.9-1.7-0.1-5-0.1-6.7-0.2q-0.8-3.9-1.7-7.7c-5.3-0.3-10.7-0.5-16-0.6 0 8.7 0.1 17.3 0.7 26 6.6 0.3 13.5 1.6 19.9-0.2 4.3-3.6 5.9-9.3 8.7-14 1.3 0.7 4.1 2.3 5.5 3-2.3 6.5-1.8 15.2-7.5 19.8-15.1 1.4-30.3-1.2-45.5 0.1-7.7-0.5-16.2 1.1-23.4-2.4-10.4-9.1-17.9-21-26.7-31.6 0 8.5 0 16.9 0.7 25.3q4.5 1 9 2c-0.5 2 0.8 6.2-2.6 6.1-9.4 0.3-18.9-0.1-28.3 0.1q-0.2-3.1-0.4-6.1 4.3-1.1 8.7-2c1.5-19.5 0.6-39 0.3-58.5-2.7-0.9-5.4-1.5-7.9-2.5-0.1-1.5-0.4-4.4-0.5-5.9zm126.4 0c12.1 0.4 24.2-0.6 36.2 0.4 10.7 1.5 17.2 13.2 14.8 23.3-0.9 6.9-6.1 11.8-11.2 16 5.9 8.9 11.1 18.5 18.6 26.2 4.3 4.7 12.5 1.7 13.9-4.2 7.9-20.2 14.7-40.7 20.9-61.4q4.7-0.2 9.4-0.3c6.8 21 12.9 42.4 20.9 63 1 4.5 5.7 4.7 9.4 5.6 0.2 1.5 0.7 4.5 0.9 6-9.5 0.5-19.1 0.7-28.6 0.1-2.6 0-1.9-3.7-1.8-5.4q3.4-1.4 7-2.4c-1.8-6.8-4-13.5-6.4-20.1q-8.6 0.1-17.1 0c-2.4 6.3-4.5 12.8-6.3 19.4 2.9 1.8 10 1.1 8.9 6-0.5 4.5-6 2.2-9 2.8-11.3-1.1-24 3.9-34.2-2.9-8.1-7.8-11.8-18.9-18.4-27.9-2.2-0.7-4.5-1-6.7-1.4-0.2 8.1 0 16.2 0.5 24.3q4.4 0.8 8.8 1.6-0.3 3.1-0.6 6.2c-9.6-0.1-19.2 0.4-28.8-0.1-5.2-5 2.7-7.7 7-7.9 1.4-18.3 0.9-36.7 0.7-55 1.2-5.6-5.3-4.9-8.8-6 0-1.4 0-4.4 0-5.9zm21.2 7.8c0.2 9.2-0.1 18.6-0.2 27.9 4.7-0.6 10.6 0.9 14.2-3 4.5-5.6 4.2-14.1 0.8-20.2-3.1-5-9.6-5.3-14.8-4.7zm74.1 11.5c-2.2 6.2-4 12.5-5.8 18.8q6 0 12 0c-1.8-6.4-3.6-12.7-6.2-18.8zm28.2 0.7c0.3-7.3 1.5-14.4 2.5-21.5 20.6 3.1 41.6 1.3 62.4 0.7-1.2 7.4-2.1 14.8-2.7 22.3q-3.2 0-6.3 0c-0.6-4.5-1.4-9-2.7-13.3q-7.5 0-15 0c0 17.2 0 34.5 0.3 51.8 0.5 2.3-0.5 6.8 3 7.2q3.8 0.9 7.6 1.6c-0.7 2 0.4 6.3-2.8 6.1-10.8-0.2-21.7 1-32.3-0.7 0-1.4 0.1-4.3 0.2-5.8q5.1-0.7 10.2-1.3c2.2-19.7 0.7-39.6 1.5-59.4-4.8 0.1-9.6 0.3-14.5 0.6-2.2 4.9-4.2 9.9-6.3 14.9-1.3-0.8-3.8-2.4-5.1-3.2zm68.1-20c9.9 0.1 19.7 0.1 29.6 0 2 6-3.4 7.1-7.8 8.7-1.2 9-0.5 18.2-0.5 27.3 0.2 10.3-0.6 20.6 0.7 30.9 3 0.6 6 1.1 9.1 1.7q-0.3 3.2-0.6 6.4c-10.2-0.1-20.4 0-30.6-0.1q-0.3-3-0.5-6.1 4.3-1 8.7-1.9c1.4-19.5 1.2-39.1 0.2-58.7-2.9-0.7-5.8-1.4-8.7-2.1 0.1-1.5 0.3-4.6 0.4-6.1zm32.2-0.3c6.8-0.1 13.7 0 20.5 0.3 12.3 17.9 24.9 35.8 38.8 52.5 0.3-14.6 0.3-29.3-1-43.9-4.3-0.9-13.8-1.8-9.5-8.3 9.1-0.6 18.3-0.1 27.5-0.1 0 1.4 0 4.1 0 5.5-2.3 0.9-4.7 1.8-6.9 2.9-1.6 2.8-1.2 6.2-1.4 9.3-0.1 19-1 38-0.3 57-3.3 0.1-6.7 0.7-10-0.1-12.8-17.7-25.2-35.7-38.2-53.3-0.3 14.1-0.8 28.2 0.2 42.3 0.1 4.2 5.8 3.3 8.6 4.9 2.8 0.3 0.9 4.2 1.6 6.1-9.4 0.1-18.9 0.5-28.3 0-2.4-1.8-1.7-5.9 1.3-6.3 2.4-1.4 7.1-0.8 7-4.6 1.3-16.7 0.9-33.4 1.1-50 0.9-6.3-6.6-6.1-10.5-8.1-0.1-1.5-0.4-4.6-0.5-6.1zm136.9 0.4c9.9-0.1 19.8 0 29.7 0 0 1.5-0.1 4.5-0.1 6q-3.7 0.9-7.4 1.9c-0.7 7.9-0.7 15.9-0.6 23.9 10.7 0.1 21.4 0.1 32.1 0.1-0.1-7.9 0.3-15.9-0.6-23.7-2.6-1.1-5.3-1.6-8-2.3 0.1-1.6 0.1-4.9 0.2-6.5 9.8 0.2 19.6 0.3 29.4 0.4 0 1.6 0 4.6 0 6.2q-4.1 1.1-8.1 2.4c0.2 19.3-0.8 38.7 0.4 58 2.9 1.1 6 1.6 9 2.2q-0.4 3.1-0.7 6.3c-10.1-0.5-20.3 0.9-30.2-0.7 0-1.4 0-4.4-0.1-5.8q4-0.7 8.1-1.4c0.8-8.7 0.7-17.4 0.7-26.1-10.8-0.1-21.5-0.1-32.3 0 0.2 8.3 0.1 16.6 0.9 24.8 2.5 2 5.8 2.1 8.8 3.2q-0.3 2.9-0.5 5.9c-9.5 0-19.1 0.3-28.6 0-3.2 0.1-1.8-4.2-2.3-6.1 2.8-0.8 5.8-1.1 8.4-2.4 1.7-7.4 0.7-15 1.1-22.5-0.1-12 0.4-24-0.8-36-2.9-0.6-5.8-1.1-8.6-1.7 0-1.5 0.1-4.5 0.1-6.1zm159.2-0.1c7.2 0 14.4-0.1 21.6 0.3 5.8 16.6 13.1 32.8 20.1 49 0.4 0 1.3 0.2 1.7 0.3 7.1-16.3 14.8-32.4 20.5-49.3 6.7-0.1 13.5-0.8 20.1 0.1l1.9 2.9q2.5-1.9 4.9-3.8c15.9 0.7 31.7 0.9 47.5-0.2-0.2 6.8-0.9 13.5-2 20.2-1.4 0.1-4.2 0.2-5.6 0.2-0.9-3.7-1.8-7.5-2.7-11.2-6.1-0.4-12.2-0.4-18.2-0.2 0 8.1-0.3 16.2-0.3 24.4 5.5 0 11-0.1 16.4-0.8 1.1-4 2.3-9.6 7.8-7.3 1.4 7.9-0.5 16.6 0.1 24.8q-3.2-0.1-6.3 0-0.8-3.9-1.5-7.7c-5.5-0.7-11-0.9-16.5-0.8q0.3 12.8 0.5 25.6c6.5 0.8 13.3 1.8 19.8 0.3 4.6-3.3 6.1-9.2 8.6-14 1.5 0.7 4.5 2.1 6 2.7-1.7 6.3-2.5 12.9-5.6 18.6-2.8 2.6-6.9 1.3-10.3 1.7-24.3-0.7-48.6-0.7-72.9-0.8q-0.2-3.1-0.3-6.1 4-1.2 8.2-2.2c0.6-14.3-0.4-28.7-0.2-43-7.6 16.7-14.8 33.5-21 50.8-1.5 0.1-4.4 0.3-5.8 0.4-5.7-17.4-12.8-34.3-19.5-51.3-1.6 14.3-2.5 28.8-1.7 43.3q4.7 0.8 9.4 1.7-0.4 3.2-0.7 6.4c-9.2 0-18.3-0.1-27.5 0.1q-0.3-3.2-0.5-6.3c3.4-1.2 9.5-0.7 9.4-5.8 2.1-16.9 3.2-34.1 4-51.1 0.5-5.3-6.5-4.3-9.7-5.8 0-1.5 0.2-4.5 0.3-6.1zm75.8 8.1c-1.1 16.6 0.4 33.2 0.5 49.8 0.6 3.3-0.8 9.5 4.1 9.8 5.3 1.7 10.8 0.5 16.1-0.3 1.5-19.8 0.6-39.7 0.5-59.6-6.9-3.2-14.3-2-21.2 0.3zm130.6-9.3c20.8 2 41.9 1.7 62.7 0.1-1 7.6-1.9 15.3-2.8 22.9-1.4-0.1-4.2-0.3-5.6-0.4-1.5-4.2-1.9-8.6-2.8-12.9-5.1-0.3-10.3-0.4-15.4-0.4-0.1 16 0.4 31.9 0.2 47.9 0.4 3.4-0.3 7.4 1.5 10.6 3 1.2 6.6 1.1 9.3 3.1-0.3 1.4-0.8 4.1-1.1 5.4-10.6-0.4-21.2 0.1-31.8-0.2-3.6 0.3-3.7-6.8 0-6.5 2.9-1.3 8.8 0 8.9-4.5 0.8-18.7 0.2-37.4 0.8-56.1-4.9 0.1-10-0.4-14.7 1-2.5 4.2-3.8 9-5.3 13.7-2.4-0.8-7.2-0.5-5.9-4.5 0.6-6.4 1.5-12.8 2-19.2zm83 1.5q4.7-0.2 9.4-0.4c6.8 21 12.9 42.2 20.8 62.8 2.2 7.3 11.5 5.7 17.3 4.9 1.3-20 1.1-40.1 0.3-60.1-2.8-0.5-5.6-0.9-8.4-1.4 0-1.5-0.1-4.5-0.1-6 11.4 0.1 22.8-0.4 34.1 0.1 8.5 0.2 16.6 7 16.6 15.8 1 6.5-3.1 11.9-6.9 16.7 13.9 5.9 15.3 26.2 4.4 35.5-10.3 9.8-25.6 7.5-38.5 7.3-12.7-0.7-25.3-0.7-38-0.4-0.4-1.9-1-3.8-0.8-5.8q3.4-1.3 7-2.3c-1.7-6.9-3.9-13.6-6.4-20.2q-8.5 0.1-17.1 0c-2.4 6.4-4.4 12.9-6.2 19.5 4 1.3 11.6 2 8.2 7.9-8.8 1.6-18.2 0.8-27.1 0.4q-0.6-2.7-1-5.3c4.5-1.3 10.1-2.2 11.5-7.5 7.9-20.1 14.8-40.7 20.9-61.5zm60.9 7.1c-0.4 7.8-0.4 15.6-0.5 23.4 5.1-0.6 12.6 1.7 15.5-4 2.4-5 2.1-11.7-1.7-15.9-3.4-3.6-8.7-3.1-13.3-3.5zm-64.6 30.7q6-0.1 12 0c-1.8-6.3-3.7-12.6-5.8-18.8-2.6 6-4.4 12.4-6.2 18.8zm64.1-0.3c0.2 8.7-0.4 17.5 0.7 26.2 0.7 4.6 6.8 4 10.3 3.9 10.4-1 12.3-14.8 8.2-22.4-3.6-7-12.3-7.4-19.2-7.7zm39.3-37.5c12-0.2 23.9-0.6 35.8 0.1 11.1 1.1 18.1 13.3 15.4 23.7-0.9 6.7-6.1 11.5-11.2 15.4 5.9 9.2 11.3 19.1 19.1 26.8 3.8 3.8 9.1 1.4 13.6 0.8 1.3-19.6 1.2-39.3 0.2-58.9q-4.2-1-8.4-1.8-0.2-2.9-0.2-5.7c9.7-1.6 19.8-0.1 29.7-0.7 0.1 1.5 0.1 4.6 0.2 6.1-2.6 0.9-5.7 0.7-7.7 2.6-1.7 12.9-0.2 26.1-0.6 39.1 0.2 6.3-1 12.8 1.1 18.9 2.8 0.9 5.8 1.4 8.8 2.1q-0.4 3.1-0.7 6.3c-10.6-0.2-21.1-0.5-31.6 0.6-6 0.2-12.9 0-17.6-4.2-7.9-7.9-11.2-19.2-18.4-27.6-1.5-0.3-4.6-0.7-6.1-0.9-0.1 8.1 0 16.1 0.6 24.2q4.6 0.8 9.3 1.8-0.6 2.8-1.3 5.5c-9.2 1-18.5 0.4-27.8 0.3-3.1 0.3-1.8-4.1-2.3-5.9q4.3-1.1 8.7-2.1c0.7-19.4 1-38.9 0.1-58.3-2.5-1.9-5.8-2-8.7-2.9 0-1.3 0-4 0-5.3zm21.6 7c-0.3 9.5-0.3 19-0.2 28.4 4.8-0.6 11 1 14.4-3.4 4.2-6 3.9-14.7-0.2-20.7-3.3-4.2-9.1-4.1-14-4.3zm-631.7 94.6c0.7-2.8-1.4-9.1 3.4-8.6 19.9 0 39.9-0.3 59.9 0.2q-0.1 4.3-0.1 8.7c-21.1 0.1-42.2 0.6-63.2-0.3zm363.4-8.4c21-0.5 42-0.2 63-0.1q0 4.4 0 8.9c-20.9 0.1-41.8 0.2-62.7-0.1q-0.2-4.4-0.3-8.7zm-62.9 46.3c9.3-3.8 18.6-7.6 28-11.2 0.4 2.9 0.7 5.9 1.1 8.8-6.4 2.5-12.7 5-18.9 8.1 6.3 8.2 13.6 15.6 18.8 24.6 3 5.1 1.9 13.3-4.1 15.7-4.4 1.5-9.2 0.9-13.8 1.1-7.1-0.2-14.6 1-21.2-2.4 0 8.7-3.8 18.4-12.2 21.9-5.4 1.7-11.1 0.8-16.6 1q-0.6-4.1-1.2-8.3c7.4 0 17.8 1.2 21.2-7.3 2.2-10.2 0.4-20.8 1-31.2 1.9 0 5.8 0 7.8 0 0.9 5.6-3.1 16 5.2 17.3 8.8 1 17.7 0.5 26.6 0 0.5-6.1-4.6-10.1-8.1-14.4-5.8-7.1-14.2-13.5-13.6-23.7zm-339.5-6.4c3.1 0.2 6.7-1 9.3 1 3.7 4.4-1.4 11.6-6.8 9.2-4.9-0.9-3.1-6.9-2.5-10.2zm282.5-0.2q3.9 0 7.7 0.1c-0.1 17.8-0.2 35.5 0.1 53.2q-3.9 0.1-7.8 0.3 0-26.8 0-53.6zm180 1.4c2.5 0 5 0 7.6 0.1 0.5 14.2-1.1 28.6 1 42.7 8.2 0.3 17 1.2 24.6-2.6 5.2-2.5 9.9-5.9 14.8-9-6.5-6.9-16.7-3.2-25-4.2q-0.4-4.2-0.8-8.4c8.5 0.4 17.3-1.2 25.6 1 6.7 2.3 7.8 9.9 8.9 16-10.9 6.5-21.1 16.6-34.6 16.6-6.1 0-12.8 0.7-18.2-2.7-4.2-2.6-4.2-7.9-4.2-12.2 0.2-12.5-0.1-24.9 0.3-37.3zm32.4-0.1c2.7-0.9 6.1-1.2 8.4 0.8 2.6 3.5 0.1 9.9-4.6 9.3-5.5 1.1-7.8-7.1-3.8-10.1zm-377 8.6c3.4 0.2 8.7-1.6 9.8 2.9 1.6 4.9-4.9 9.2-8.6 5.6-2.9-1.9-1-5.8-1.2-8.5zm14.1 0.2c3.3 0.1 9.2-2 9.9 2.7 2 5-5 9.2-8.6 5.5-2.6-1.9-1-5.5-1.3-8.2zm119.8-0.2c2.9 0.1 6.1-0.7 8.9 0.7 3 4-0.6 10.7-5.9 8.8-4.6-1-3.2-6.2-3-9.5zm13.8 3c0.7-4.8 6.4-2.8 9.7-2.9 0.2 2.9 1.5 6.3-1.1 8.6-3.9 3-10.2-0.8-8.6-5.7zm173.7-3c3.8-1.1 9.4-0.3 8.7 4.9 0.7 6.2-9.8 7.8-11.1 1.9-0.6-2.3-0.3-6.3 2.4-6.8zm-40.8 8.8q2.6-2.9 5.3-5.6c8 9.4 15.9 19 24 28.4 4.5 5.4 12.5 3.1 18.6 2.8 1-5.6 1.1-11.4 1-17 2 0 5.9 0 7.9 0-0.4 8.2 2.2 18.8-5.5 24.6-5.1 3-11.6 1.7-17.2 1.7-5.5 0-8.6-5.1-12.3-8.3-4.2 9.8-19 12.7-25.3 3.4-6.6-8.6-1.5-19.8 5.1-26.7-0.4-0.8-1.2-2.5-1.6-3.3zm2.2 23.7c2.4 5.3 11.1 3.9 12.4-1.6 1.4-5.5-4.1-8.8-7-12.5-3.4 3.6-8.4 8.6-5.4 14.1zm-219.7-21.1c3-0.9 7.3-1.4 9.1 1.8 1.5 3.7-0.9 9-5.5 8.3-5.4 0.7-7.3-7.1-3.6-10.1zm-178.2 5.9q3.8 0 7.6 0c0.6 5.2-1.3 11.5 1.7 16.1 6.6 3.3 14.7 1.9 21.8 0.8 0.5-5.6 0.7-11.2 0.9-16.8q3.7 0 7.5 0c-0.1 8.8 2.5 21.9-8 25.9-7.8 0.6-16.2 1.8-23.4-1.8-0.8 7-2.6 14.5-8.2 19.2-5.8 5.2-14.1 3.3-21.2 3.6q-0.4-4.3-0.7-8.4c7.5 0.4 17.9 1 21.1-7.6 1.9-10.2 0.4-20.7 0.9-31zm65.9 0.1q3.8 0 7.6 0.1c0.6 5.2-1.4 11.3 1.8 15.9 5.5 3.1 12.2 1.3 18.2 1 1-5.6 1.3-11.3 1.2-17q3.9 0 7.9 0.1c0.3 5.5-1.3 11.6 1.7 16.5 6.8 1.6 14.3 2.1 21.1 0.3 3.3-4.8 1.1-11.5 1.8-17 1.9 0.1 5.8 0.1 7.8 0.1-0.3 8.7 2.4 21.1-7.4 25.8-9.6 1.2-19.6 1-29-1.3-8 2.1-17 3.5-24.7-0.4-0.8 7.4-2.8 15.5-9.3 20-5.8 4.3-13.4 2.4-20 2.8q-0.4-4.3-0.7-8.4c7.4 0.3 18 1.1 21.1-7.6 1.6-10.2 0.1-20.7 0.9-30.9zm134.7-0.1q3.9 0 7.8 0.2c0.7 5.7-2.8 16.1 5.4 17.3 5 0.5 10.6 1.4 15.4-0.7 2.9-4.9 1-11.2 1.6-16.6 1.9 0 5.8 0 7.8 0 0.1 5.2-0.6 10.6 0.6 15.7 5.7 3.4 13.9 2.5 20.1 1 3.3-4.7 1.1-11.4 1.8-16.8 1.9 0 5.8 0 7.7-0.1-0.3 8.8 2.5 21-7.1 25.9-9 1.1-18.4 1.4-27.1-1.4-8.4 2.1-18 4-25.9-0.3-0.3 9.7-5.6 22-16.8 22.7-8.7-0.2-19.7 2.5-26.1-5.3-8.5-9-5.4-22.2-5.8-33.3q3.8-0.1 7.6 0c0.5 7.9-1.2 16.3 1.4 24 3.8 7.5 13.4 6.7 20.5 6.2 5.8-0.1 11.1-5.2 11-11.1 0.4-9.1 0-18.3 0.1-27.4zm-115.9 36.8c3-0.8 7.6-1 8.5 2.8 1.7 4.3-3 8.9-7.3 7.3-4.8-0.4-5.2-8.8-1.2-10.1zm-69.9 1.6c3.8-4.5 12.7 1.3 8.4 6.7-3.9 5.7-13.5-1.4-8.4-6.7zm13.2-0.3c3-0.3 6.5-2 9.1 0.2 3.2 3.6-0.2 10.3-5.1 8.7-4.6-0.3-3.7-5.8-4-8.9zm188.1-0.3c5.6-4 11.9 4.1 6.9 8.2-5.4 4.7-12.3-4.2-6.9-8.2zm13.9 0.2c5.3-3.8 11.9 2.4 7.9 7.7-5.1 4.9-13-2.9-7.9-7.7z"/></g></svg>